<?xml version="1.0" encoding="UTF-8"?>
<!DOCTYPE svg PUBLIC "-//W3C//DTD SVG 1.1//EN" "http://www.w3.org/Graphics/SVG/1.1/DTD/svg11.dtd">
<!-- Creator: CorelDRAW X8 -->
<svg xmlns="http://www.w3.org/2000/svg" xml:space="preserve" width="20mm" height="10.375mm" version="1.1" style="shape-rendering:geometricPrecision; text-rendering:geometricPrecision; image-rendering:optimizeQuality; fill-rule:evenodd; clip-rule:evenodd"
viewBox="0 0 2000 1038"
 xmlns:xlink="http://www.w3.org/1999/xlink">
 <defs>
  <style type="text/css">
   <![CDATA[
    .str0 {stroke:#301D13;stroke-width:7.62}
    .fil0 {fill:#301D13;fill-rule:nonzero}
   ]]>
  </style>
 </defs>
 <g id="Слой_x0020_1">
  <metadata id="CorelCorpID_0Corel-Layer"/>
  <path class="fil0 str0" d="M595 2c-99,8 -230,71 -336,169 -160,150 -259,391 -142,535 122,151 328,22 465,-136 79,-91 133,-194 143,-256 11,-67 3,-148 -43,-194 -26,-26 -56,-37 -90,-40 20,-5 40,-8 59,-11 25,-5 -31,-69 -56,-67zm-325 326c61,-80 110,-129 194,-167 61,-27 192,-74 216,20 51,193 -352,670 -505,542 -117,-98 -21,-299 57,-411 12,16 29,26 38,16zm472 693c81,16 134,-47 118,-120 -9,36 -66,49 -101,44 -179,-22 -317,-110 -479,-161 -82,-24 -185,-25 -245,38 67,-12 163,-1 231,24 184,71 356,153 476,175zm385 -718c-27,11 -51,29 -73,50 -17,-6 -47,-9 -54,2 -75,119 -120,233 -136,392 4,20 40,24 48,10 6,-66 20,-123 41,-178 7,14 14,24 23,31 48,22 102,-43 121,-68 34,-45 84,-109 94,-171 3,-27 0,-49 -28,-62 -15,-6 -25,-12 -36,-6zm19 46c-3,24 -12,40 -24,64 -38,72 -107,140 -128,160 -7,6 -15,5 -15,-6 -1,-33 37,-108 42,-112 15,-21 31,-46 48,-62 19,-21 52,-50 68,-60 12,-5 12,-1 9,16zm66 104c37,-68 24,-43 60,-107 6,-11 18,-39 30,-35 7,3 13,3 20,5 13,4 -1,18 -20,41 -11,13 -39,49 -63,97 -30,55 -54,121 -44,179 2,16 16,22 26,25 42,14 135,-164 154,-200 18,-34 -11,-33 -24,-7 -6,16 -106,173 -118,170 -9,-3 11,-70 40,-126 29,-55 65,-103 96,-154 10,-15 -1,-21 -18,-31 -29,-14 -39,-10 -31,-39 4,-13 21,-48 32,-71 8,-15 -16,-14 -32,-8 -21,8 -35,51 -37,71 -2,17 -13,31 -20,46 -39,65 -37,71 -73,132 -14,23 8,29 22,12zm231 -147c-19,33 -128,156 -116,247 2,29 35,59 61,36 53,-46 97,-108 130,-168 13,-22 -12,-30 -21,-15 -23,45 -64,115 -118,155 -21,18 -14,3 -12,-9 14,-50 33,-81 44,-100 25,-40 54,-79 90,-120 16,-11 -60,-46 -58,-26zm83 -110c-5,20 -26,63 -38,79 17,7 30,8 37,4 11,-18 36,-44 47,-62 3,-9 -36,-19 -46,-21zm39 71c-18,32 -34,58 -50,91 -32,70 -64,127 -71,202 -2,10 -3,26 6,37l10 13c9,13 36,34 43,25 3,-4 8,-7 9,-13 5,-53 59,-140 118,-228 4,-5 -42,110 -42,132 1,28 7,60 28,75 32,22 152,-158 163,-195 11,-19 -8,-39 -25,-3 -2,15 -70,108 -85,124 -34,35 -50,29 -34,-7 12,-29 65,-159 103,-207 4,-3 25,-21 28,-26 12,-20 -62,-42 -68,-24 -49,65 -103,116 -141,183l-40 67c0,1 -45,84 -31,43 23,-67 67,-155 97,-206 21,-33 40,-56 43,-61 11,-12 -60,-38 -61,-22zm158 -35c55,-15 91,-33 148,-34 -79,113 -150,255 -185,387 -6,22 -9,78 21,89 5,2 24,-2 19,-19 -9,-49 30,-149 62,-215 35,-77 90,-166 146,-236 14,2 28,5 44,9 14,7 22,-11 9,-16 -15,-4 -27,-6 -39,-11 9,-10 17,-20 27,-29 10,-15 -55,-17 -68,-6l-20 26c-54,-3 -97,8 -169,19 -8,0 -4,39 5,36z"/>
 </g>
</svg>
